# xmcd
#
# Track frame offsets:
# 150
# 16750
# 30798
# 51274
# 65204
# 82428
# 97957
# 112514
# 130163
# 154917
#
# Disc length: 2306 seconds
#
# Revision: 1
# Processed by: cddbd v1.4PL0 Copyright (c) Steve Scherf et al.
# Submitted via: Easy CD Ripper v2.10
#
DISCID=7609000a
DTITLE=The Elsewhere Band - Little Elsie
DYEAR=2003
DGENRE=Alternative
TTITLE0=Bobby - The Elsewhere Band
TTITLE1=Close Up the Distance - The Elsewhere Band
TTITLE2=Life's a Bust - The Elsewhere Band
TTITLE3=Suffocation Blues - The Elsewhere Band
TTITLE4=Needless to Say - The Elsewhere Band
TTITLE5=When the Dawn Lies Waiting - The Elsewhere Band
TTITLE6=Rise Little One - The Elsewhere Band
TTITLE7=Missing You - The Elsewhere Band
TTITLE8=Walk Out on Me - The Elsewhere Band
TTITLE9=Tore My Heart Away - The Elsewhere Band
EXTD=Alternative blues/contemporary folk
EXTT0=
EXTT1=
EXTT2=
EXTT3=
EXTT4=
EXTT5=
EXTT6=
EXTT7=
EXTT8=
EXTT9=
PLAYORDER=
